# xmcd
#
# Track frame offsets:
# 150
# 13904
# 30044
# 42849
# 55716
# 68462
# 73541
# 80272
# 95203
# 112365
# 124786
# 136322
# 150786
#
# Disc length: 2084 seconds
#
#
# Revision: 0
# Processed by: cddbd v1.5.1PL2 Copyright (c) Steve Scherf et al.
# Submitted via: FreeRIP 2.944 
#
DISCID=9f08220d
DTITLE=Amy Grant - Amy Grant
DYEAR=1977
DGENRE=Contemporary Christian
TTITLE0=Beautiful Music
TTITLE1=Mountain Top
TTITLE2=Psalm 104
TTITLE3=Old Man's Rubble
TTITLE4=Brand New Start
TTITLE5=Grape, Grape Joy
TTITLE6=Walking In The Light
TTITLE7=What A Difference You've Made
TTITLE8=He Gave Me A New Song
TTITLE9=On and On
TTITLE10=The Lord Has a Will
TTITLE11=I Know Better Now
TTITLE12=Father
EXTD=
EXTT0=
EXTT1=
EXTT2=
EXTT3=
EXTT4=
EXTT5=
EXTT6=
EXTT7=
EXTT8=
EXTT9=
EXTT10=
EXTT11=
EXTT12=
PLAYORDER=
